<svg width="962" height="232" viewBox="0 0 962 232" fill="none" xmlns="http://www.w3.org/2000/svg">
<path d="M252.36 186H280.68L316.84 67.44H292.84L277.48 125.2C273.8 138.32 271.24 150.16 267.4 163.44H266.6C262.92 150.16 260.36 138.32 256.68 125.2L241 67.44H216.2L252.36 186ZM355.661 188.24C366.701 188.24 378.061 184.4 386.861 178.32L378.861 163.92C372.461 167.92 366.061 170.16 358.701 170.16C345.421 170.16 335.821 162.48 333.901 147.76H389.101C389.741 145.68 390.221 141.36 390.221 136.88C390.221 112.24 377.421 94.16 352.781 94.16C331.501 94.16 311.021 112.24 311.021 141.2C311.021 170.8 330.541 188.24 355.661 188.24ZM333.581 132.08C335.341 119.12 343.661 112.4 353.101 112.4C364.621 112.4 370.061 120.08 370.061 132.08H333.581ZM400.79 186H424.31V132.56C429.27 119.6 437.75 114.96 444.79 114.96C448.47 114.96 451.03 115.44 454.23 116.4L458.23 96.08C455.51 94.96 452.63 94.16 447.67 94.16C438.39 94.16 428.79 100.56 422.23 112.24H421.75L419.99 96.4H400.79V186ZM461.678 186H485.198V96.4H461.678V186ZM473.518 82C481.518 82 487.118 76.88 487.118 69.04C487.118 61.36 481.518 56.24 473.518 56.24C465.358 56.24 459.758 61.36 459.758 69.04C459.758 76.88 465.358 82 473.518 82ZM505.471 186H528.991V114.96H545.791V96.4H528.991V88.72C528.991 78.8 532.831 74.64 539.871 74.64C542.751 74.64 546.271 75.28 549.311 76.56L553.631 59.12C549.631 57.68 543.551 56.08 536.671 56.08C514.111 56.08 505.471 70.48 505.471 89.2V96.56L493.471 97.52V114.96H505.471V186ZM560.043 222C580.043 222 589.643 209.84 597.483 188.72L629.323 96.4H606.763L594.443 138C592.363 146.32 590.123 154.96 588.043 163.28H587.243C584.683 154.64 582.443 146 579.723 138L565.483 96.4H541.803L576.683 184.4L575.083 189.68C572.523 197.52 567.403 203.28 558.283 203.28C556.203 203.28 553.643 202.64 552.043 202.16L547.723 220.24C551.243 221.36 554.763 222 560.043 222ZM637.198 186H659.598V138.48C659.598 124.88 657.838 110 656.718 97.2H657.518L669.518 122.64L703.758 186H727.758V67.44H705.358V114.8C705.358 128.24 707.278 143.92 708.398 156.24H707.598L695.758 130.64L661.358 67.44H637.198V186ZM783.761 188.24C806.161 188.24 826.801 170.96 826.801 141.2C826.801 111.44 806.161 94.16 783.761 94.16C761.361 94.16 740.721 111.44 740.721 141.2C740.721 170.96 761.361 188.24 783.761 188.24ZM783.761 169.04C771.601 169.04 764.721 158.16 764.721 141.2C764.721 124.4 771.601 113.36 783.761 113.36C795.921 113.36 802.801 124.4 802.801 141.2C802.801 158.16 795.921 169.04 783.761 169.04ZM851.307 186H878.187L887.307 146.96C889.227 138.64 890.507 130.32 892.267 120.88H893.067C894.827 130.32 896.267 138.48 898.187 146.96L907.627 186H935.307L957.387 96.4H935.627L925.867 140.56C924.267 149.36 922.987 157.84 921.387 166.8H920.587C918.667 157.84 917.067 149.36 914.987 140.56L903.787 96.4H882.987L872.107 140.56C869.867 149.2 868.267 157.84 866.507 166.8H865.867C864.267 157.84 863.147 149.36 861.387 140.56L851.627 96.4H828.107L851.307 186Z" fill="#0066F5"/>
<rect x="25.6197" y="15" width="135" height="65" transform="rotate(23.2129 25.6197 15)" fill="#0066F5"/>
<rect x="34.9652" y="103.974" width="135" height="65" transform="rotate(23.2129 34.9652 103.974)" fill="#0066F5"/>
</svg>
